<svg xmlns="http://www.w3.org/2000/svg" width="64" height="64" viewBox="0 0 160 160" fill="none">
  <defs>
    <linearGradient id="research-online-bg-64" x1="20" y1="18" x2="146" y2="148" gradientUnits="userSpaceOnUse">
      <stop stop-color="#0E172A"/>
      <stop offset="1" stop-color="#09101D"/>
    </linearGradient>
    <radialGradient id="research-online-glow-64" cx="0" cy="0" r="1" gradientUnits="userSpaceOnUse" gradientTransform="translate(112 34) rotate(128) scale(134 122)">
      <stop stop-color="#F59E0B" stop-opacity="0.28"/>
      <stop offset="1" stop-color="#F59E0B" stop-opacity="0"/>
    </radialGradient>
  </defs>
  <rect x="8" y="8" width="144" height="144" rx="34" fill="#040A14"/>
  <rect x="10" y="10" width="140" height="140" rx="32" fill="url(#research-online-bg-64)"/>
  <rect x="10" y="10" width="140" height="140" rx="32" fill="url(#research-online-glow-64)"/>
  <rect x="10" y="10" width="140" height="140" rx="32" stroke="#E2E8F0" stroke-opacity="0.08" stroke-width="2"/>
  <path d="M18 118C40 106 60 102 82 106C104 110 121 104 142 88V128C123 141 99 146 78 144C55 142 37 146 18 150V118Z" fill="#F59E0B" fill-opacity="0.12"/>
  <circle cx="80" cy="88" r="46" fill="#07111F"/>
  <circle cx="80" cy="88" r="46" fill="#F59E0B" fill-opacity="0.06"/>
  <circle cx="80" cy="88" r="46" stroke="#E2E8F0" stroke-opacity="0.1" stroke-width="2"/>
  <rect x="20" y="20" width="32" height="32" rx="12" fill="#F59E0B" fill-opacity="0.18" stroke="#F59E0B" stroke-opacity="0.55" stroke-width="2"/>
  <circle cx="36" cy="36" r="10.5" fill="#F59E0B"/>
  
        <circle cx="34" cy="34" r="7" fill="none" stroke="#F8FAFC" stroke-width="3.5"/>
        <path d="M39.5 39.5L45 45" fill="none" stroke="#F8FAFC" stroke-width="3.5" stroke-linecap="round"/>
        <path d="M34 29V39M29 34H39" fill="none" stroke="#F8FAFC" stroke-width="2.5" stroke-linecap="round"/>
      
  <circle cx="122" cy="31" r="2.6" fill="#F8FAFC" fill-opacity="0.92"/>
  <circle cx="130" cy="25" r="1.9" fill="#F8FAFC" fill-opacity="0.72"/>
  <circle cx="131" cy="35" r="1.7" fill="#F8FAFC" fill-opacity="0.58"/>
  <circle cx="139" cy="30" r="2.2" fill="#F8FAFC" fill-opacity="0.72"/>
  
        <circle cx="74" cy="84" r="26" fill="none" stroke="#F8FAFC" stroke-width="4"/>
        <path d="M48 84H100M74 58C68 66 65 75 65 84C65 93 68 102 74 110C80 102 83 93 83 84C83 75 80 66 74 58Z" fill="none" stroke="#F8FAFC" stroke-opacity="0.75" stroke-width="3.5" stroke-linecap="round" stroke-linejoin="round"/>
        <circle cx="100" cy="100" r="16" fill="none" stroke="#F59E0B" stroke-width="5"/>
        <path d="M111 111L120 120" stroke="#F59E0B" stroke-width="5" stroke-linecap="round"/>
      
</svg>
